<?xml version="1.0" encoding="UTF-8" standalone="no"?><!-- Generator: Gravit.io --><svg xmlns="http://www.w3.org/2000/svg" xmlns:xlink="http://www.w3.org/1999/xlink" style="isolation:isolate" viewBox="0 0 1024 1024" width="1024pt" height="1024pt"><defs><clipPath id="_clipPath_5lD6FSE0oQAttNaMsAe03dmktRnOt5DK"><rect width="1024" height="1024"/></clipPath></defs><g clip-path="url(#_clipPath_5lD6FSE0oQAttNaMsAe03dmktRnOt5DK)"><g style="isolation:isolate"><defs><filter id="BM6n8JjWELritCyujKdctdqw10s3LDTI" x="-200%" y="-200%" width="400%" height="400%" filterUnits="objectBoundingBox" color-interpolation-filters="sRGB"><feOffset xmlns="http://www.w3.org/2000/svg" in="SourceGraphic" dx="0" dy="0"/><feGaussianBlur xmlns="http://www.w3.org/2000/svg" stdDeviation="4.293609062839028" result="pf_100_offsetBlur"/><feComposite xmlns="http://www.w3.org/2000/svg" in="SourceGraphic" in2="pf_100_offsetBlur" result="pf_100_inverse" operator="out"/><feFlood xmlns="http://www.w3.org/2000/svg" flood-color="#000000" flood-opacity="0.5" result="pf_100_color"/><feComposite xmlns="http://www.w3.org/2000/svg" in="pf_100_color" in2="pf_100_inverse" operator="in" result="pf_100_shadow"/><feComposite xmlns="http://www.w3.org/2000/svg" in="pf_100_shadow" in2="SourceGraphic" operator="over"/></filter></defs><g filter="url(#BM6n8JjWELritCyujKdctdqw10s3LDTI)"><path d=" M 511.99 946.037 C 511.99 946.037 512 946.037 512 946.037 L 512 946.037 L 512.01 946.037 C 541.378 946.047 570.676 943.089 599.455 937.214 C 627.354 931.498 654.624 923.024 680.864 911.923 C 706.665 900.991 731.357 887.581 754.58 871.882 C 777.642 856.294 799.166 838.537 818.852 818.852 C 838.537 799.166 856.294 777.642 871.882 754.58 C 887.581 731.357 900.991 706.665 911.923 680.864 C 923.024 654.624 931.498 627.354 937.214 599.455 C 943.089 570.676 946.047 541.378 946.037 512.01 C 946.037 505.385 948.665 499.03 953.342 494.343 C 958.028 489.657 964.383 487.019 971.009 487.019 C 977.634 487.019 983.989 489.647 988.675 494.323 C 993.362 499.01 996 505.365 996 511.99 C 996.01 544.726 992.722 577.391 986.157 609.467 C 979.782 640.614 970.319 671.062 957.928 700.34 C 945.737 729.128 930.788 756.658 913.282 782.559 C 895.904 808.26 876.109 832.242 854.175 854.175 C 832.242 876.109 808.26 895.904 782.559 913.282 C 756.658 930.788 729.128 945.737 700.34 957.928 C 671.062 970.319 640.614 979.782 609.467 986.157 C 577.391 992.712 544.736 996.01 512 996 C 479.264 996.01 446.609 992.712 414.532 986.157 C 383.386 979.782 352.938 970.319 323.66 957.928 C 294.872 945.737 267.342 930.788 241.441 913.282 C 215.74 895.904 191.758 876.109 169.825 854.175 C 147.891 832.242 128.096 808.26 110.718 782.559 C 93.212 756.658 78.263 729.128 66.072 700.34 C 53.681 671.062 44.218 640.614 37.843 609.467 C 31.288 577.391 27.99 544.736 28 512 C 27.99 479.264 31.288 446.609 37.843 414.532 C 44.218 383.386 53.681 352.938 66.072 323.66 C 78.263 294.872 93.212 267.342 110.718 241.441 C 128.096 215.74 147.891 191.758 169.825 169.825 C 191.758 147.891 215.74 128.096 241.441 110.718 C 267.342 93.212 294.872 78.263 323.66 66.072 C 352.938 53.681 383.386 44.218 414.532 37.843 C 446.609 31.278 479.274 27.99 512.01 28 C 518.635 28 524.99 30.638 529.677 35.325 C 534.353 40.011 536.981 46.366 536.981 52.991 C 536.981 59.617 534.343 65.972 529.657 70.658 C 524.97 75.335 518.615 77.963 511.99 77.963 C 482.622 77.953 453.324 80.911 424.545 86.786 C 396.646 92.502 369.376 100.976 343.136 112.077 C 317.335 123.009 292.643 136.419 269.42 152.118 C 246.358 167.706 224.834 185.463 205.148 205.148 C 185.463 224.834 167.706 246.358 152.118 269.42 C 136.419 292.643 123.009 317.335 112.077 343.136 C 100.976 369.376 92.502 396.646 86.786 424.545 C 80.911 453.324 77.953 482.622 77.963 512 C 77.953 541.378 80.911 570.676 86.786 599.455 C 92.502 627.354 100.976 654.624 112.077 680.864 C 123.009 706.665 136.419 731.357 152.118 754.58 C 167.706 777.642 185.463 799.166 205.148 818.852 C 224.834 838.537 246.358 856.294 269.42 871.882 C 292.643 887.581 317.335 900.991 343.136 911.923 C 369.376 923.024 396.646 931.498 424.545 937.214 C 453.324 943.089 482.622 946.047 511.99 946.037 Z  M 512.01 996 C 512.01 996 512 996 512 996" fill-rule="evenodd" fill="rgb(74,81,83)"/></g><defs><filter id="zXSPRhL2MMOg2gszzOz2O3hX0a115OJw" x="-200%" y="-200%" width="400%" height="400%" filterUnits="objectBoundingBox" color-interpolation-filters="sRGB"><feOffset xmlns="http://www.w3.org/2000/svg" in="SourceGraphic" dx="0" dy="0"/><feGaussianBlur xmlns="http://www.w3.org/2000/svg" stdDeviation="4.293609062839028" result="pf_100_offsetBlur"/><feComposite xmlns="http://www.w3.org/2000/svg" in="SourceGraphic" in2="pf_100_offsetBlur" result="pf_100_inverse" operator="out"/><feFlood xmlns="http://www.w3.org/2000/svg" flood-color="#000000" flood-opacity="0.5" result="pf_100_color"/><feComposite xmlns="http://www.w3.org/2000/svg" in="pf_100_color" in2="pf_100_inverse" operator="in" result="pf_100_shadow"/><feComposite xmlns="http://www.w3.org/2000/svg" in="pf_100_shadow" in2="SourceGraphic" operator="over"/></filter></defs><g filter="url(#zXSPRhL2MMOg2gszzOz2O3hX0a115OJw)"><path d=" M 708.328 783.625 L 708.328 783.625 Q 722 792.752 722 806.443 L 722 806.443 L 722 806.443 Q 722 811.007 718.354 818.309 L 718.354 818.309 L 718.354 818.309 Q 714.708 824.698 708.328 828.349 L 708.328 828.349 L 708.328 828.349 Q 701.948 832 694.657 832 L 694.657 832 L 694.657 832 Q 685.542 832 679.162 828.349 L 679.162 828.349 L 679.162 828.349 Q 653.641 813.745 638.147 780.887 L 638.147 780.887 L 638.147 780.887 Q 622.652 748.029 622.652 675.923 L 622.652 675.923 L 622.652 675.923 Q 622.652 612.031 587.106 586.019 L 587.106 586.019 L 587.106 586.019 Q 551.559 560.006 502.341 560.006 L 502.341 560.006 L 300 560.006 L 300 247.851 L 300 247.851 L 300 194 L 516.013 194 L 516.013 194 Q 567.965 194 608.981 216.362 L 608.981 216.362 L 608.981 216.362 Q 649.996 238.724 673.238 277.971 L 673.238 277.971 L 673.238 277.971 Q 696.479 317.219 696.479 366.506 L 696.479 366.506 L 696.479 366.506 Q 696.479 424.921 665.946 469.189 L 665.946 469.189 L 665.946 469.189 Q 635.413 513.456 586.194 529.886 L 586.194 529.886 L 586.194 529.886 Q 626.298 545.402 651.819 582.368 L 651.819 582.368 L 651.819 582.368 Q 677.339 619.333 678.251 672.272 L 678.251 672.272 L 678.251 672.272 Q 679.162 728.861 685.998 751.68 L 685.998 751.68 L 685.998 751.68 Q 692.834 774.498 708.328 783.625 L 708.328 783.625 Z  M 300 509.805 L 518.747 509.805 L 518.747 509.805 Q 550.648 507.067 577.991 488.813 L 577.991 488.813 L 577.991 488.813 Q 605.335 470.558 621.741 439.525 L 621.741 439.525 L 621.741 439.525 Q 638.147 408.492 638.147 368.332 L 638.147 368.332 L 638.147 368.332 Q 638.147 316.306 603.056 282.079 L 603.056 282.079 L 603.056 282.079 Q 567.965 247.851 511.456 247.851 L 511.456 247.851 L 300 247.851 L 300 509.805 Z " fill-rule="evenodd" fill="rgb(74,81,83)"/></g></g></g></svg>