<?xml version="1.0" encoding="UTF-8" standalone="no"?><!-- Generator: Gravit.io --><svg xmlns="http://www.w3.org/2000/svg" xmlns:xlink="http://www.w3.org/1999/xlink" style="isolation:isolate" viewBox="0 0 512 512" width="512pt" height="512pt"><defs><clipPath id="_clipPath_GOoy9n8xQULjBHdeHXvJVHcZV8rFTvL2"><rect width="512" height="512"/></clipPath></defs><g clip-path="url(#_clipPath_GOoy9n8xQULjBHdeHXvJVHcZV8rFTvL2)"><g style="isolation:isolate"><defs><filter id="qbyG96NG55De6hxPQo34U1kWE1oerKkd" x="-200%" y="-200%" width="400%" height="400%" filterUnits="objectBoundingBox" color-interpolation-filters="sRGB"><feOffset xmlns="http://www.w3.org/2000/svg" in="SourceGraphic" dx="0" dy="0"/><feGaussianBlur xmlns="http://www.w3.org/2000/svg" stdDeviation="4.293609062839028" result="pf_100_offsetBlur"/><feComposite xmlns="http://www.w3.org/2000/svg" in="SourceGraphic" in2="pf_100_offsetBlur" result="pf_100_inverse" operator="out"/><feFlood xmlns="http://www.w3.org/2000/svg" flood-color="#000000" flood-opacity="0.5" result="pf_100_color"/><feComposite xmlns="http://www.w3.org/2000/svg" in="pf_100_color" in2="pf_100_inverse" operator="in" result="pf_100_shadow"/><feComposite xmlns="http://www.w3.org/2000/svg" in="pf_100_shadow" in2="SourceGraphic" operator="over"/></filter></defs><g filter="url(#qbyG96NG55De6hxPQo34U1kWE1oerKkd)"><path d=" M 255.995 473.18 C 255.995 473.18 256 473.18 256 473.18 L 256 473.18 L 256.005 473.18 C 270.7 473.185 285.36 471.705 299.76 468.765 C 313.72 465.905 327.365 461.665 340.495 456.11 C 353.405 450.64 365.76 443.93 377.38 436.075 C 388.92 428.275 399.69 419.39 409.54 409.54 C 419.39 399.69 428.275 388.92 436.075 377.38 C 443.93 365.76 450.64 353.405 456.11 340.495 C 461.665 327.365 465.905 313.72 468.765 299.76 C 471.705 285.36 473.185 270.7 473.18 256.005 C 473.18 252.69 474.495 249.51 476.835 247.165 C 479.18 244.82 482.36 243.5 485.675 243.5 C 488.99 243.5 492.17 244.815 494.515 247.155 C 496.86 249.5 498.18 252.68 498.18 255.995 C 498.185 272.375 496.54 288.72 493.255 304.77 C 490.065 320.355 485.33 335.59 479.13 350.24 C 473.03 364.645 465.55 378.42 456.79 391.38 C 448.095 404.24 438.19 416.24 427.215 427.215 C 416.24 438.19 404.24 448.095 391.38 456.79 C 378.42 465.55 364.645 473.03 350.24 479.13 C 335.59 485.33 320.355 490.065 304.77 493.255 C 288.72 496.535 272.38 498.185 256 498.18 C 239.62 498.185 223.28 496.535 207.23 493.255 C 191.645 490.065 176.41 485.33 161.76 479.13 C 147.355 473.03 133.58 465.55 120.62 456.79 C 107.76 448.095 95.76 438.19 84.785 427.215 C 73.81 416.24 63.905 404.24 55.21 391.38 C 46.45 378.42 38.97 364.645 32.87 350.24 C 26.67 335.59 21.935 320.355 18.745 304.77 C 15.465 288.72 13.815 272.38 13.82 256 C 13.815 239.62 15.465 223.28 18.745 207.23 C 21.935 191.645 26.67 176.41 32.87 161.76 C 38.97 147.355 46.45 133.58 55.21 120.62 C 63.905 107.76 73.81 95.76 84.785 84.785 C 95.76 73.81 107.76 63.905 120.62 55.21 C 133.58 46.45 147.355 38.97 161.76 32.87 C 176.41 26.67 191.645 21.935 207.23 18.745 C 223.28 15.46 239.625 13.815 256.005 13.82 C 259.32 13.82 262.5 15.14 264.845 17.485 C 267.185 19.83 268.5 23.01 268.5 26.325 C 268.5 29.64 267.18 32.82 264.835 35.165 C 262.49 37.505 259.31 38.82 255.995 38.82 C 241.3 38.815 226.64 40.295 212.24 43.235 C 198.28 46.095 184.635 50.335 171.505 55.89 C 158.595 61.36 146.24 68.07 134.62 75.925 C 123.08 83.725 112.31 92.61 102.46 102.46 C 92.61 112.31 83.725 123.08 75.925 134.62 C 68.07 146.24 61.36 158.595 55.89 171.505 C 50.335 184.635 46.095 198.28 43.235 212.24 C 40.295 226.64 38.815 241.3 38.82 256 C 38.815 270.7 40.295 285.36 43.235 299.76 C 46.095 313.72 50.335 327.365 55.89 340.495 C 61.36 353.405 68.07 365.76 75.925 377.38 C 83.725 388.92 92.61 399.69 102.46 409.54 C 112.31 419.39 123.08 428.275 134.62 436.075 C 146.24 443.93 158.595 450.64 171.505 456.11 C 184.635 461.665 198.28 465.905 212.24 468.765 C 226.64 471.705 241.3 473.185 255.995 473.18 Z  M 256.005 498.18 C 256.005 498.18 256 498.18 256 498.18" fill-rule="evenodd" fill="rgb(74,81,83)"/></g><defs><filter id="b8wttqyfK3J3Lb9BE2MV2KbuLiABPDaa" x="-200%" y="-200%" width="400%" height="400%" filterUnits="objectBoundingBox" color-interpolation-filters="sRGB"><feOffset xmlns="http://www.w3.org/2000/svg" in="SourceGraphic" dx="0" dy="0"/><feGaussianBlur xmlns="http://www.w3.org/2000/svg" stdDeviation="4.293609062839028" result="pf_100_offsetBlur"/><feComposite xmlns="http://www.w3.org/2000/svg" in="SourceGraphic" in2="pf_100_offsetBlur" result="pf_100_inverse" operator="out"/><feFlood xmlns="http://www.w3.org/2000/svg" flood-color="#000000" flood-opacity="0.5" result="pf_100_color"/><feComposite xmlns="http://www.w3.org/2000/svg" in="pf_100_color" in2="pf_100_inverse" operator="in" result="pf_100_shadow"/><feComposite xmlns="http://www.w3.org/2000/svg" in="pf_100_shadow" in2="SourceGraphic" operator="over"/></filter></defs><g filter="url(#b8wttqyfK3J3Lb9BE2MV2KbuLiABPDaa)"><path d=" M 354.667 391.126 L 354.667 391.126 Q 361.503 395.683 361.503 402.519 L 361.503 402.519 L 361.503 402.519 Q 361.503 404.798 359.68 408.444 L 359.68 408.444 L 359.68 408.444 Q 357.857 411.634 354.667 413.457 L 354.667 413.457 L 354.667 413.457 Q 351.477 415.28 347.831 415.28 L 347.831 415.28 L 347.831 415.28 Q 343.273 415.28 340.083 413.457 L 340.083 413.457 L 340.083 413.457 Q 327.323 406.165 319.575 389.759 L 319.575 389.759 L 319.575 389.759 Q 311.828 373.352 311.828 337.349 L 311.828 337.349 L 311.828 337.349 Q 311.828 305.447 294.054 292.459 L 294.054 292.459 L 294.054 292.459 Q 276.28 279.47 251.671 279.47 L 251.671 279.47 L 150.497 279.47 L 150.497 123.609 L 150.497 123.609 L 150.497 96.72 L 258.507 96.72 L 258.507 96.72 Q 284.484 96.72 304.992 107.886 L 304.992 107.886 L 304.992 107.886 Q 325.5 119.051 337.121 138.648 L 337.121 138.648 L 337.121 138.648 Q 348.742 158.245 348.742 182.854 L 348.742 182.854 L 348.742 182.854 Q 348.742 212.021 333.475 234.125 L 333.475 234.125 L 333.475 234.125 Q 318.208 256.228 293.598 264.431 L 293.598 264.431 L 293.598 264.431 Q 313.651 272.179 326.411 290.636 L 326.411 290.636 L 326.411 290.636 Q 339.172 309.093 339.628 335.526 L 339.628 335.526 L 339.628 335.526 Q 340.083 363.782 343.501 375.175 L 343.501 375.175 L 343.501 375.175 Q 346.919 386.568 354.667 391.126 L 354.667 391.126 Z  M 150.497 254.405 L 259.874 254.405 L 259.874 254.405 Q 275.825 253.038 289.497 243.923 L 289.497 243.923 L 289.497 243.923 Q 303.169 234.808 311.372 219.313 L 311.372 219.313 L 311.372 219.313 Q 319.575 203.818 319.575 183.766 L 319.575 183.766 L 319.575 183.766 Q 319.575 157.789 302.029 140.699 L 302.029 140.699 L 302.029 140.699 Q 284.484 123.609 256.228 123.609 L 256.228 123.609 L 150.497 123.609 L 150.497 254.405 Z " fill-rule="evenodd" fill="rgb(74,81,83)"/></g></g></g></svg>