<svg version="1.2" baseProfile="tiny" xmlns="http://www.w3.org/2000/svg" width="841.9" height="595.3"><path d="M431.9 360.5c-2.2-5-7.4-16.7-2-25.5 3.5-5.5 10.5-8.3 21.6-8.8 2.3 0 4.2-2 4.1-4.4v-3.5a4.3 4.3 0 0 0-4.6-4.2c-15.2.5-25.7 5.4-31.4 14.5-8.8 14.3-1.8 30 1.1 36.8 2.2 5 7.4 16.7 2 25.5-3.5 5.5-10.5 8.4-21.5 8.8-2.4.1-4.3 2.1-4.2 4.5v3.5a4.3 4.3 0 0 0 4.4 4.2h.2c15.2-.6 25.8-5.5 31.4-14.6 8.8-14.2 1.9-30-1.1-36.8zM343.6 189.4h-5a3.1 3.1 0 0 0-3.1 3.1v57.3c0 1.7 1.4 3.1 3.1 3.1h5c1.7 0 3.1-1.4 3.1-3.1v-57.3c0-1.7-1.4-3-3-3zM514 189.4h-4.3a3.1 3.1 0 0 0-3.1 3.1v57.3c0 1.7 1.4 3.1 3.1 3.1h4.3c1.8 0 3.2-1.4 3.2-3.1v-57.3c0-1.7-1.4-3-3.2-3zM288.3 189.4a31.8 31.8 0 1 0 22.5 54.2c.3-.3.5-.6.6-1 .2-.3.2-.6.2-.9v-.3-.3c0-.3 0-.6-.2-.9-.1-.4-.3-.7-.6-1l-3-3a3.1 3.1 0 0 0-4.5 0 21.2 21.2 0 0 1-35.5-9.7h47c2.9 0 5.3-2.4 5.3-5.3a31.8 31.8 0 0 0-31.8-31.8zm0 10.6c9.7 0 18.2 6.6 20.5 15.9h-41a21.2 21.2 0 0 1 20.5-16zM394 253a31.8 31.8 0 1 0 0-63.7 31.8 31.8 0 0 0 0 63.6zm0-53a21.1 21.1 0 1 1 0 42.3 21.1 21.1 0 0 1 0-42.2zM438.8 246c3.2 1.6 14.2 7 24.1 7 17 0 25.9-9.5 25.9-18.7 0-10.7-9-15.5-22.3-19.3-12.3-3.4-14.6-5.8-14.6-9 0-2.8 3.4-6.1 13-6.1 4.1 0 8 .5 11.5 1.4a3.1 3.1 0 0 0 4-2.3l1-4.7c.3-1.6-.7-3.2-2.3-3.6a54.5 54.5 0 0 0-14.3-1.8c-17.6 0-23.8 9.2-23.8 17.1 0 13.4 13.7 17 22.8 19.4 14.1 3.7 14 6.8 14 8.2v.7c0 3.2-5.2 7.6-14.9 7.6-7 0-14-3.4-19-5.7a3.1 3.1 0 0 0-4.1 1.3l-2.3 4.2a3.1 3.1 0 0 0 1.3 4.2zM341.5 162.3a6.5 6.5 0 1 0 0 13 6.5 6.5 0 0 0 0-13zM511.9 162.3a6.5 6.5 0 1 0 0 13 6.5 6.5 0 0 0 0-13zM404 308.3c2.8-1.1 5.6-2 8.5-2.7l1.7-.4a4.3 4.3 0 0 0 3.2-5.3l-.8-3.4a4.3 4.3 0 0 0-5.2-3.2l-1.7.4a71.7 71.7 0 0 0-49 41.5 71.7 71.7 0 0 0 4.1 64l.9 1.5a4.3 4.3 0 0 0 6 1.5l3-1.7c2-1.2 2.7-3.9 1.5-6l-.9-1.5a58.7 58.7 0 0 1-3.4-53 58.6 58.6 0 0 1 32.1-31.7zM487 325.5a4.3 4.3 0 0 0-6-1.6l-3 1.8a4.3 4.3 0 0 0-1.5 6l.9 1.5a58.6 58.6 0 0 1 3.4 53 58.5 58.5 0 0 1-40.7 34.4l-1.6.4a4.3 4.3 0 0 0-3.2 5.3l.8 3.4a4.3 4.3 0 0 0 5.2 3.2l1.7-.4a72.2 72.2 0 0 0 49-41.5 71.7 71.7 0 0 0-4.1-64l-1-1.5zM563 215c-12.2-3.4-14.5-5.8-14.5-9 0-2.8 3.4-6.1 13-6.1 4 0 8 .5 11.5 1.4a3.1 3.1 0 0 0 3.9-2.3l1-4.7c.3-1.6-.7-3.2-2.3-3.6a54.5 54.5 0 0 0-14.2-1.8c-17.6 0-23.8 9.2-23.8 17.1 0 13.4 13.7 17 22.8 19.4 14 3.7 14 6.8 14 8.2v.7c0 3.2-5.2 7.6-15 7.6-7 0-14-3.4-19-5.7a3.1 3.1 0 0 0-4 1.3l-2.3 4.2a3.1 3.1 0 0 0 1.3 4.2c3.1 1.7 14.2 7 24 7 17 0 26-9.4 26-18.6 0-10.7-9-15.5-22.4-19.3z"/></svg>