<?xml version="1.0" encoding="UTF-8"?>
<svg width="97px" height="25px" viewBox="0 0 97 25" version="1.1" xmlns="http://www.w3.org/2000/svg" xmlns:xlink="http://www.w3.org/1999/xlink">
    <!-- Generator: Sketch 63.1 (92452) - https://sketch.com -->
    <title>logo</title>
    <desc>Created with Sketch.</desc>
    <g id="Maquettes-desktop" stroke="none" stroke-width="1" fill="none" fill-rule="evenodd">
        <g id="03_INCENDIES_desktop" transform="translate(-40.000000, -12.000000)" fill="#FFFFFF">
            <g id="Header">
                <g id="logo">
                    <g transform="translate(40.000000, 12.000000)">
                        <path d="M27.0786924,6.74409627 C32.0262101,6.74409627 34.0837709,8.49664388 34.0837709,13.5442707 L34.0837709,13.5442707 L34.0834566,20.2364843 C34.080714,21.4405528 34.0664115,21.9780067 34.3108267,22.4360855 C34.5664243,22.920869 34.9459868,23.0989353 35.3928566,23.0989353 C36.3875573,23.0989353 36.7160002,22.1532242 36.7134443,21.2569285 L36.7134443,21.2569285 L37.5245407,21.2569285 C37.5245407,23.4448441 36.1434616,24.6700086 33.9359502,24.6700086 C31.9226931,24.6700086 30.9782599,23.1649647 30.8095655,20.9357275 C29.464696,23.4303602 27.1728375,24.6700086 24.6130274,24.6700086 C21.7013447,24.6700086 19.8542259,23.2535719 19.8542259,20.6405123 C19.8542259,18.8943546 20.6606364,17.3931447 22.5899723,16.1279365 C24.3207942,14.9939351 27.2618706,14.1811347 30.7128644,13.8718616 L30.7128644,13.8718616 L30.7128644,13.2171057 C30.7128644,9.25449079 29.3339153,7.64550384 26.9819913,7.64550384 C25.2601154,7.64550384 24.6326232,8.30451967 24.656905,9.2851625 C24.6854467,10.3782683 25.1374285,10.4788033 25.1374285,11.7883151 C25.1374285,12.9589521 24.2534868,13.5178589 23.053456,13.5178589 C21.988466,13.5178589 20.9839674,12.8579911 20.9839674,11.3427233 C20.9839674,8.71091987 23.1454711,6.74409627 27.0786924,6.74409627 Z M75.9448232,6.7406457 C81.3971462,6.7406457 84.5870043,10.3858936 84.5870043,15.6997679 C84.5870043,21.0153462 81.3971462,24.6631501 75.9448232,24.6631501 C70.4873882,24.6631501 67.303068,21.0153462 67.303068,15.6997679 C67.303068,10.3858936 70.4873882,6.7406457 75.9448232,6.7406457 Z M91.0390974,1.24857726 L91.0390974,7.44980127 L96.0155829,7.44980127 L96.0155829,8.49008354 L91.0390974,8.49008354 L91.0390974,19.992402 C91.0390974,21.2478122 91.2491134,22.0018252 91.7517887,22.5982196 C92.1909906,23.1200647 92.796757,23.3245428 93.4489569,23.3245428 C94.7772124,23.3245428 95.8426285,22.3669038 95.897582,20.1645044 L96.75,20.1645044 C96.75,22.7128125 95.3425092,24.6634483 92.2855618,24.6634483 C89.8152109,24.6634483 87.6758589,23.2470115 87.6758589,19.3376461 L87.6758589,8.49008354 L84.5801458,8.49008354 L84.5801458,7.80422995 C88.1367866,7.58867597 89.9604755,4.84398364 90.222889,1.24857726 L91.0390974,1.24857726 Z M11.8490792,0.25 C17.1352638,0.25 20.0541885,3.2336761 20.0541885,6.94452739 C20.0541885,12.1306029 15.8359759,13.9491799 11.8490792,13.9491799 C11.1299979,13.9491799 10.0045164,13.8810205 9.3237748,13.7770775 L9.3237748,13.0499023 C9.3237748,13.0499023 9.82091216,13.083982 10.2026046,13.083982 C14.2521227,13.083982 16.2466361,10.830889 16.2466361,6.82439652 C16.2466361,5.03137928 15.7345889,3.62431444 14.7062345,2.67050936 C13.5104637,1.5548258 12.0761351,1.1905992 9.98534662,1.1905992 L7.55631733,1.1905992 L7.55631733,20.4733089 C7.55631733,22.5700613 7.96910747,23.5979897 11.436289,23.5979897 L11.436289,24.2859732 L5.32907052e-15,24.2859732 L5.32907052e-15,23.5979897 C2.77962401,23.5979897 3.84461405,22.5700613 3.84461405,20.4733089 L3.84461405,4.05925638 C3.84461405,1.96292998 2.77962401,0.935001594 5.32907052e-15,0.935001594 L5.32907052e-15,0.25 L11.8490792,0.25 Z M48.7726673,6.7404327 C50.7071152,6.7404327 51.6460104,8.19137513 51.6460104,9.46254724 C51.6460104,11.2504525 50.6317139,12.1812538 49.3469099,12.1812538 C48.3862889,12.1812538 47.5722105,11.4715445 47.6527238,10.3366911 C47.7247171,9.31046667 47.5649686,8.86657882 46.7900818,8.86657882 C46.0416068,8.86657882 45.3940929,9.62655571 44.9306092,10.4849377 C44.1552965,11.9179883 43.8102397,13.7220814 43.8102397,17.2084328 L43.8102397,20.9772196 C43.8102397,22.7306192 44.4739415,23.5932611 47.3621945,23.5932611 L47.3621945,24.2859306 L37.7998619,24.2859306 L37.7998619,23.5932611 C39.7394218,23.5932611 40.4683009,22.7306192 40.4683009,20.9772196 L40.4683009,11.1413975 C40.4683009,9.35136228 40.2173893,8.4942583 37.5557662,8.4942583 L37.5557662,7.80457075 C39.7394218,7.80457075 42.3226616,7.63033838 44.1288847,6.7404327 C44.1288847,6.7404327 43.8102397,9.32069057 43.8102397,11.0165807 C44.1288847,9.90856507 44.7465789,8.90832643 45.4805701,8.14536756 C46.3504539,7.24055202 47.410758,6.7404327 48.7726673,6.7404327 Z M63.8963352,6.7404327 C65.8269492,6.7404327 66.7666964,8.19137513 66.7666964,9.46254724 C66.7666964,11.2504525 65.7523999,12.1812538 64.4710039,12.1812538 C63.5065489,12.1812538 62.6903405,11.4715445 62.7746877,10.3366911 C62.850089,9.31046667 62.6886365,8.86657882 61.9133238,8.86657882 C61.1618668,8.86657882 60.5173348,9.62655571 60.0534252,10.4849377 C59.2734265,11.9179883 58.9339077,13.7220814 58.9339077,17.2084328 L58.9339077,20.9772196 C58.9339077,22.7306192 59.6001654,23.5932611 62.4850104,23.5932611 L62.4850104,24.2859306 L52.6773042,24.2859306 L52.6773042,23.5932611 C54.6138821,23.5932611 55.5919689,22.7306192 55.5919689,20.9772196 L55.5919689,11.1413975 C55.5919689,9.35136228 55.3427612,8.4942583 52.6773042,8.4942583 L52.6773042,7.80457075 C54.8647937,7.80457075 57.4454776,7.63033838 59.2470147,6.7404327 C59.2470147,6.7404327 58.9339077,9.32069057 58.9339077,11.0165807 C59.2499967,9.90856507 59.8702469,8.90832643 60.6021081,8.14536756 C61.46688,7.24055202 62.528888,6.7404327 63.8963352,6.7404327 Z M75.9448232,7.60797359 C73.2205786,7.60797359 71.1638699,10.1626717 71.1638699,15.6997679 C71.1638699,21.2394201 73.2205786,23.7932662 75.9448232,23.7932662 C78.6690677,23.7932662 80.7257765,21.2394201 80.7257765,15.6997679 C80.7257765,10.1626717 78.6690677,7.60797359 75.9448232,7.60797359 Z M30.7128644,14.7306696 C26.4631281,15.1268459 23.7201398,17.148197 23.5484634,20.24604 C23.4398344,22.1157365 24.4204772,23.342179 26.1806928,23.342179 C27.2618706,23.342179 28.399706,22.7530266 29.3028176,21.5346779 C30.2881463,20.1915125 30.7051964,18.3533397 30.7051964,15.4855345 L30.7051964,15.4855345 Z M95.0788602,1.25675638 C95.3076201,1.25675638 95.52573,1.30105997 95.7268002,1.38668517 C95.9270183,1.47529234 96.1033806,1.59457123 96.2503493,1.74196585 C96.3981699,1.88893447 96.5170228,2.06572282 96.605204,2.26807093 C96.6921071,2.46871505 96.7359847,2.68597302 96.7359847,2.91388089 C96.7359847,3.14349274 96.6929591,3.35521276 96.605204,3.56096884 C96.5165968,3.76331694 96.3973179,3.9388273 96.2507753,4.08451794 C96.1016767,4.23319055 95.9257403,4.35204344 95.7263742,4.43809463 C95.52999,4.52201585 95.312306,4.56376346 95.0788602,4.56376346 C94.8458404,4.56376346 94.6285824,4.52201585 94.4326243,4.43724264 C94.2341101,4.35289543 94.0573218,4.23404254 93.9065192,4.08451794 C93.7591246,3.93712332 93.6406977,3.76076097 93.5546465,3.56096884 C93.4660393,3.35606475 93.4230137,3.14434473 93.4230137,2.91388089 C93.4230137,2.68512103 93.4673173,2.46786306 93.5546465,2.26807093 C93.6406977,2.0674268 93.7591246,1.89063846 93.9073712,1.74196585 C94.0560438,1.59371923 94.2328321,1.47444035 94.4326243,1.38668517 C94.6332684,1.30105997 94.8501004,1.25675638 95.0788602,1.25675638 Z M95.0788602,1.39903905 C94.8667142,1.39903905 94.6673481,1.43823069 94.4867258,1.51789194 C94.3014175,1.59797919 94.139113,1.70873816 94.0049243,1.8437789 C93.8698835,1.97881963 93.7608286,2.14112411 93.6820193,2.32558039 C93.603636,2.5066287 93.5635924,2.70429085 93.5635924,2.91388089 C93.5635924,3.1268789 93.601932,3.32113308 93.6820193,3.50644135 C93.7599766,3.68876764 93.8651976,3.84723816 94.0049243,3.98909483 C94.142521,4.12711754 94.3043995,4.23489453 94.4867258,4.31029583 C94.6682001,4.38910509 94.8675662,4.42914872 95.0788602,4.42914872 C95.2875983,4.42914872 95.4856864,4.38910509 95.6680127,4.31029583 C95.849487,4.23489453 96.0113655,4.12711754 96.1489622,3.98994682 C96.2874109,3.84851615 96.3943359,3.69047162 96.4748492,3.50644135 C96.5557884,3.31942909 96.5945541,3.12517491 96.5945541,2.91388089 C96.5945541,2.70642083 96.5545104,2.50790668 96.4748492,2.32558039 C96.3934839,2.14027212 96.283151,1.97796764 96.1489622,1.8437789 C96.0147735,1.70788617 95.852469,1.59797919 95.6680127,1.51789194 C95.4839824,1.4373787 95.2914322,1.39903905 95.0788602,1.39903905 Z M95.1450174,1.98031062 C95.3627014,1.98031062 95.5262838,2.02717018 95.6315049,2.12003731 C95.7371519,2.21503442 95.7908274,2.34751918 95.7908274,2.51152765 C95.7908274,2.59502287 95.7767695,2.6661642 95.7490798,2.73134159 C95.719686,2.794815 95.6804944,2.84763851 95.6340608,2.88768213 C95.5901832,2.92857775 95.5365077,2.96052745 95.4721824,2.98395723 C95.4231928,3.00142307 95.3724993,3.01462895 95.3222318,3.02229687 L95.3222318,3.02229687 L95.8734706,3.864491 L95.9003083,3.90623861 L95.726076,3.90623861 L95.7179821,3.89388472 L95.1675952,3.04018871 L95.1675952,3.04018871 L95.1450174,3.04231869 L94.6440461,3.04231869 L94.6440461,3.90623861 L94.5026154,3.90623861 L94.5026154,1.98031062 Z M95.1356455,2.1208893 L94.6440461,2.1208893 L94.6440461,2.89918402 L95.0704681,2.89918402 C95.1343675,2.89918402 95.2012489,2.89535006 95.2706862,2.88683014 C95.3345856,2.87958821 95.397633,2.86169638 95.4576985,2.83443263 C95.513078,2.80929887 95.5590855,2.77053323 95.5952952,2.71898771 C95.6315049,2.66957217 95.6489707,2.60183881 95.6489707,2.51152765 C95.6489707,2.42845843 95.6349128,2.36413303 95.6067971,2.3138655 C95.5795333,2.26657994 95.5424717,2.22696231 95.4960381,2.19756859 C95.4525865,2.16945285 95.399763,2.15028303 95.3337336,2.13835514 C95.2706862,2.12642725 95.2042309,2.1208893 95.1356455,2.1208893 L95.1356455,2.1208893 Z" id="Combined-Shape"/>
                    </g>
                </g>
            </g>
        </g>
    </g>
</svg>