<?xml version="1.0" encoding="utf-8"?>
<!-- Generator: Adobe Illustrator 16.0.3, SVG Export Plug-In . SVG Version: 6.00 Build 0)  -->
<!DOCTYPE svg PUBLIC "-//W3C//DTD SVG 1.0//EN" "http://www.w3.org/TR/2001/REC-SVG-20010904/DTD/svg10.dtd">
<svg version="1.0" id="Layer_1" xmlns="http://www.w3.org/2000/svg" xmlns:xlink="http://www.w3.org/1999/xlink" x="0px" y="0px"
	 width="841.89px" height="595.28px" viewBox="0 0 841.89 595.28" enable-background="new 0 0 841.89 595.28" xml:space="preserve">
<g>
	<path d="M452.084,242.197c-2.718-0.295-4.795-0.465-6.175-0.511c-1.349-0.042-2.889-0.061-4.619-0.061h-14.36
		c-2.26,0-3.945-0.358-5.008-1.067c-0.812-0.538-1.221-1.759-1.221-3.626c0-1.195,0.148-2.201,0.44-2.992
		c0.183-0.493,0.696-0.932,1.521-1.297c0.775-0.343,2.404-0.814,5.777-1.105c2.866-0.248,5.679-0.374,8.354-0.374h1.749
		c3.522,0,6.423,0.143,8.621,0.423c2.695,0.341,3.728,0.715,4.144,0.926c0.259,0.126,0.644,0.377,0.972,1.115
		c0.221,0.501,0.487,1.549,0.487,3.703v1.952h8.961v-1.952c0-4.282-0.979-7.581-2.912-9.8c-1.947-2.239-4.733-3.565-8.282-3.945
		c-3.121-0.332-5.32-0.526-6.723-0.595c-1.398-0.066-3.644-0.099-6.674-0.099c-3.678,0-7.065,0.116-10.065,0.349
		c-3.117,0.244-5.888,0.808-8.23,1.679c-2.658,0.989-4.584,2.685-5.722,5.039c-1.039,2.151-1.566,4.823-1.566,7.937
		c0,4.234,1.349,7.333,4.005,9.209c2.443,1.729,5.862,2.605,10.107,2.605h0.004l11.217,0.312h9.539c3.682,0,5.344,0.522,6.091,0.96
		c0.713,0.419,1.124,1.907,1.124,4.078c0,1.809-0.354,3.11-1.029,3.764c-0.434,0.419-1.653,1.184-4.977,1.606
		c-2.878,0.366-6.483,0.553-10.714,0.553c-2.626,0-5.32-0.076-8.008-0.229c-2.576-0.145-4.638-0.45-6.122-0.907
		c-0.704-0.215-1.588-0.595-1.803-1.182c-0.215-0.585-0.473-1.808-0.473-4.301v-2.875h-8.962v1.951c0,5.06,0.802,8.589,2.451,10.79
		c1.694,2.264,4.455,3.667,8.203,4.166c3.261,0.438,5.738,0.693,7.361,0.762c1.612,0.065,4.002,0.097,7.104,0.097h3.309
		c3.205,0,6.216-0.128,8.952-0.383c2.886-0.267,5.404-0.876,7.489-1.81c2.321-1.044,4.002-2.641,4.997-4.751
		c0.906-1.936,1.368-4.343,1.368-7.152c0-4.451-0.999-7.588-3.057-9.589C457.771,243.668,455.201,242.532,452.084,242.197z"/>
	<path d="M532.242,223.327l-22.144,37.467h-32.327v-37.467h-8.96v45.552h36.508h5.362h5.104l5.435-9.364h31.211l5.511,9.364h10.348
		l-27.14-45.552H532.242z M525.916,251.428l10.797-18.599l10.957,18.599H525.916z"/>
	<polygon points="561.227,231.476 582.208,231.476 582.208,268.879 591.168,268.879 591.168,231.476 612.275,231.476 
		612.275,223.327 561.227,223.327 	"/>
	<polygon points="622.764,249.461 657.671,249.461 657.671,241.374 622.764,241.374 622.764,231.476 658.982,231.476 
		658.982,223.327 613.804,223.327 613.804,268.879 659.42,268.879 659.42,260.794 622.764,260.794 	"/>
	<path d="M410.896,346.903h-25.109v29.316h24.637c3.234,0,7.337-0.479,8.522-2.757c0.802-1.544,1.759-4.959,1.759-12.461
		c0-6.808-0.974-9.982-1.791-11.445C417.689,347.365,413.878,346.903,410.896,346.903z"/>
	<path d="M717.013,212.215l-10.478-39.355H328.807l-25.56-6.807c-27.42-7.296-49.39-12.46-82.443-12.46
		c-33.049,0-55.016,5.164-82.443,12.46l-26.906,7.166v251.503l26.906,7.163c27.428,7.297,49.394,12.467,82.443,12.467
		c33.053,0,55.023-5.17,82.443-12.467l25.57-6.805h377.719l10.478-39.36c7.634-28.671,13.034-51.676,13.034-86.75
		C730.047,263.896,724.646,240.89,717.013,212.215z M221.171,379.983c-4.897,0-8.859-3.972-8.859-8.861l-0.15-43.172
		c0-4.316,1.637-5.807,7.744-7.739l-68.587-30.166c3.573,1.932,13.488,9.459,13.488,16.611c0,0,0,68.776,0,77.265
		c0,8.491-17.124,12.958-17.124,12.958c22.387,5.961,39.874,10.193,63.896,11.064v18.136c-25.871-0.849-44.428-5.275-68.557-11.697
		l-13.452-3.582V187.141l13.452-3.579c24.129-6.426,42.686-10.849,68.557-11.697v18.136c-24.022,0.871-41.509,5.107-63.896,11.064
		c0,0,17.124,4.463,17.124,12.955c0,8.492,0,62.71,0,62.71c0,4.909,3.127,6.554,7.447,8.486l50.335,23.407
		c6.258,3.278,7.443,3.127,7.443,8.492c0,5.36,0,54.007,0,54.007C230.032,376.012,226.066,379.983,221.171,379.983z M312.047,410.8
		l-13.458,3.582c-24.34,6.479-43.018,10.923-69.243,11.72v-18.149c24.369-0.81,41.987-5.06,64.585-11.073
		c0,0-17.124-4.467-17.124-12.958c0-8.488,0-82.015,0-82.015c0-4.913-3.131-6.554-7.447-8.486l-50.345-23.412
		c-6.252-3.272-7.438-3.122-7.438-8.486c0-5.365,0-34.704,0-34.704c0-4.892,3.967-8.857,8.863-8.857c4.89,0,8.861,3.966,8.861,8.857
		l0.146,25.322c0,4.316-1.641,5.807-7.744,7.741l68.587,30.165c-3.577-1.933-13.484-9.459-13.484-16.61c0,0,0-50.924,0-59.416
		c0-8.491,17.124-12.955,17.124-12.955c-22.599-6.014-40.216-10.264-64.585-11.077v-18.146c26.225,0.793,44.902,5.24,69.243,11.72
		l13.458,3.579V410.8z M428.713,371.606c-0.613,3.548-1.833,6.328-3.62,8.265c-1.811,1.963-4.033,3.223-6.602,3.742
		c-2.275,0.46-5.012,0.694-8.125,0.694h-33.27v-45.491h34.865c7.053,0,11.848,1.875,14.252,5.572
		c2.26,3.478,3.357,8.89,3.357,16.548C429.57,364.732,429.281,368.323,428.713,371.606z M444.164,384.308h-8.689v-45.553h8.689
		V384.308z M500.734,380.146c-2.199,3.137-6.616,4.661-13.503,4.661h-16.545c-8.084,0-13.381-1.336-16.19-4.084
		c-2.82-2.759-4.188-8.209-4.188-16.663v-2.312c0-8.552,0.979-14.353,2.992-17.733c2.21-3.708,7.069-5.511,14.849-5.511
		l14.688-0.188l7.962,0.314c0,0,0.004,0,0.008,0c4.307,0,7.527,1.256,9.501,3.729c1.898,2.375,2.82,5.818,2.82,10.523v1.951h-8.629
		v-1.951c0-3.227-0.629-4.747-1.22-5.092c-0.647-0.38-2.435-1.015-7.168-1.015l-12.734-0.123l-7.63,0.309
		c-3.155,0.312-4.619,0.952-5.271,1.433c-0.107,0.08-1.067,0.917-1.067,5.3l-0.236,10.784c0,4.269,0.286,7.558,0.854,9.735
		c0.126,0.488,1.048,2.069,7.649,2.069l15.184,0.188c1.754,0,4.094-0.146,6.96-0.429c2.203-0.216,3.56-0.847,4.032-1.874
		c0.393-0.85,0.85-2.61,0.972-6.222h-20.649v-8.085h29.515l0.092,5.623C503.78,372.441,502.785,377.226,500.734,380.146z
		 M517.9,384.308h-8.689v-45.553h8.689V384.308z M547.621,384.308h-8.687v-37.404h-19.856v-8.148h48.518v8.148h-19.975V384.308z
		 M659.417,384.308h-38.86h-0.968h-9.006l-5.214-9.366h-29.351l-5.146,9.366h-10.084l25.475-45.553h8.613l24.712,43.832v-43.832
		h8.689v37.465h31.139V384.308z M330.16,298.975V189.617h363.498l7.165,26.915c7.299,27.418,12.467,49.39,12.467,82.443H330.16z"/>
	<polygon points="580.459,366.855 600.864,366.855 590.589,348.421 	"/>
</g>
</svg>
