<?xml version="1.0" encoding="UTF-8" standalone="no"?><!-- Generator: Gravit.io --><svg xmlns="http://www.w3.org/2000/svg" xmlns:xlink="http://www.w3.org/1999/xlink" style="isolation:isolate" viewBox="0 0 128 128" width="128pt" height="128pt"><defs><clipPath id="_clipPath_b8fkhYR1xYeVcMDc84lqx7FLawgEcbtF"><rect width="128" height="128"/></clipPath></defs><g clip-path="url(#_clipPath_b8fkhYR1xYeVcMDc84lqx7FLawgEcbtF)"><g style="isolation:isolate"><path d=" M 63.999 117.806 C 63.999 117.806 64 117.806 64 117.806 L 64 117.806 L 64.001 117.806 C 67.642 117.807 71.274 117.441 74.842 116.712 C 78.3 116.004 81.681 114.953 84.934 113.577 C 88.132 112.222 91.193 110.56 94.072 108.614 C 96.931 106.681 99.599 104.48 102.039 102.039 C 104.48 99.599 106.681 96.931 108.614 94.072 C 110.56 91.193 112.222 88.132 113.577 84.934 C 114.953 81.681 116.004 78.3 116.712 74.842 C 117.441 71.274 117.807 67.642 117.806 64.001 C 117.806 63.18 118.132 62.392 118.712 61.811 C 119.293 61.23 120.081 60.903 120.902 60.903 C 121.723 60.903 122.511 61.229 123.092 61.809 C 123.673 62.39 124 63.177 124 63.999 C 124.001 68.057 123.594 72.106 122.78 76.083 C 121.99 79.944 120.816 83.718 119.28 87.348 C 117.769 90.917 115.916 94.33 113.746 97.54 C 111.591 100.726 109.138 103.699 106.418 106.418 C 103.699 109.138 100.726 111.591 97.54 113.746 C 94.33 115.916 90.917 117.769 87.348 119.28 C 83.718 120.816 79.944 121.99 76.083 122.78 C 72.106 123.592 68.058 124.001 64 124 C 59.942 124.001 55.894 123.592 51.917 122.78 C 48.056 121.99 44.282 120.816 40.652 119.28 C 37.083 117.769 33.67 115.916 30.46 113.746 C 27.274 111.591 24.301 109.138 21.582 106.418 C 18.863 103.699 16.409 100.726 14.254 97.54 C 12.084 94.33 10.231 90.917 8.72 87.348 C 7.184 83.718 6.01 79.944 5.22 76.083 C 4.408 72.106 3.999 68.058 4 64 C 3.999 59.942 4.408 55.894 5.22 51.917 C 6.01 48.056 7.184 44.282 8.72 40.652 C 10.231 37.083 12.084 33.67 14.254 30.46 C 16.409 27.274 18.863 24.301 21.582 21.582 C 24.301 18.863 27.274 16.409 30.46 14.254 C 33.67 12.084 37.083 10.231 40.652 8.72 C 44.282 7.184 48.056 6.01 51.917 5.22 C 55.894 4.406 59.943 3.999 64.001 4 C 64.823 4 65.61 4.327 66.191 4.908 C 66.771 5.489 67.097 6.277 67.097 7.098 C 67.097 7.919 66.77 8.707 66.189 9.288 C 65.608 9.868 64.82 10.194 63.999 10.194 C 60.358 10.193 56.726 10.559 53.158 11.288 C 49.7 11.996 46.319 13.047 43.066 14.423 C 39.868 15.778 36.807 17.44 33.928 19.386 C 31.069 21.319 28.401 23.52 25.961 25.961 C 23.52 28.401 21.319 31.069 19.386 33.928 C 17.44 36.807 15.778 39.868 14.423 43.066 C 13.047 46.319 11.996 49.7 11.288 53.158 C 10.559 56.726 10.193 60.358 10.194 64 C 10.193 67.642 10.559 71.274 11.288 74.842 C 11.996 78.3 13.047 81.681 14.423 84.934 C 15.778 88.132 17.44 91.193 19.386 94.072 C 21.319 96.931 23.52 99.599 25.961 102.039 C 28.401 104.48 31.069 106.681 33.928 108.614 C 36.807 110.56 39.868 112.222 43.066 113.577 C 46.319 114.953 49.7 116.004 53.158 116.712 C 56.726 117.441 60.358 117.807 63.999 117.806 Z  M 64.001 124 C 64.001 124 64 124 64 124" fill-rule="evenodd" fill="rgb(74,81,83)"/><path d=" M 88.315 96.086 L 88.315 96.086 Q 90 97.202 90 98.876 L 90 98.876 L 90 98.876 Q 90 99.433 89.551 100.326 L 89.551 100.326 L 89.551 100.326 Q 89.102 101.107 88.315 101.554 L 88.315 101.554 L 88.315 101.554 Q 87.529 102 86.631 102 L 86.631 102 L 86.631 102 Q 85.508 102 84.721 101.554 L 84.721 101.554 L 84.721 101.554 Q 81.577 99.768 79.667 95.751 L 79.667 95.751 L 79.667 95.751 Q 77.758 91.734 77.758 82.918 L 77.758 82.918 L 77.758 82.918 Q 77.758 75.107 73.378 71.927 L 73.378 71.927 L 73.378 71.927 Q 68.998 68.747 62.933 68.747 L 62.933 68.747 L 38 68.747 L 38 30.584 L 38 30.584 L 38 24 L 64.618 24 L 64.618 24 Q 71.019 24 76.073 26.734 L 76.073 26.734 L 76.073 26.734 Q 81.127 29.468 83.991 34.266 L 83.991 34.266 L 83.991 34.266 Q 86.855 39.064 86.855 45.09 L 86.855 45.09 L 86.855 45.09 Q 86.855 52.232 83.093 57.644 L 83.093 57.644 L 83.093 57.644 Q 79.33 63.056 73.266 65.064 L 73.266 65.064 L 73.266 65.064 Q 78.207 66.961 81.352 71.481 L 81.352 71.481 L 81.352 71.481 Q 84.497 76 84.609 82.472 L 84.609 82.472 L 84.609 82.472 Q 84.721 89.391 85.564 92.18 L 85.564 92.18 L 85.564 92.18 Q 86.406 94.97 88.315 96.086 L 88.315 96.086 Z  M 38 62.609 L 64.955 62.609 L 64.955 62.609 Q 68.886 62.275 72.255 60.043 L 72.255 60.043 L 72.255 60.043 Q 75.624 57.811 77.646 54.017 L 77.646 54.017 L 77.646 54.017 Q 79.667 50.223 79.667 45.313 L 79.667 45.313 L 79.667 45.313 Q 79.667 38.953 75.343 34.768 L 75.343 34.768 L 75.343 34.768 Q 71.019 30.584 64.056 30.584 L 64.056 30.584 L 38 30.584 L 38 62.609 Z " fill-rule="evenodd" fill="rgb(74,81,83)"/></g></g></svg>