<?xml version="1.0" encoding="UTF-8" standalone="no"?>
<svg
   width="1280"
   height="640"
   viewBox="0 0 338.66668 169.33333"
   version="1.1"
   id="svg8"
   sodipodi:docname="preview.svg"
   inkscape:export-filename="../content/static/preview.png"
   inkscape:export-xdpi="96"
   inkscape:export-ydpi="96"
   inkscape:version="1.2.2 (b0a8486, 2022-12-01)"
   xmlns:inkscape="http://www.inkscape.org/namespaces/inkscape"
   xmlns:sodipodi="http://sodipodi.sourceforge.net/DTD/sodipodi-0.dtd"
   xmlns="http://www.w3.org/2000/svg"
   xmlns:svg="http://www.w3.org/2000/svg"
   xmlns:rdf="http://www.w3.org/1999/02/22-rdf-syntax-ns#"
   xmlns:cc="http://creativecommons.org/ns#"
   xmlns:dc="http://purl.org/dc/elements/1.1/">
  <defs
     id="defs2">
    <clipPath
       id="_clipPath_b8fkhYR1xYeVcMDc84lqx7FLawgEcbtF">
      <rect
         width="128"
         height="128"
         id="rect10"
         x="0"
         y="0" />
    </clipPath>
  </defs>
  <sodipodi:namedview
     id="base"
     pagecolor="#ffffff"
     bordercolor="#666666"
     borderopacity="1.0"
     inkscape:pageopacity="1"
     inkscape:pageshadow="2"
     inkscape:zoom="0.57641128"
     inkscape:cx="549.0871"
     inkscape:cy="398.15321"
     inkscape:document-units="mm"
     inkscape:current-layer="layer1"
     inkscape:document-rotation="0"
     showgrid="false"
     units="px"
     inkscape:window-width="1440"
     inkscape:window-height="847"
     inkscape:window-x="0"
     inkscape:window-y="25"
     inkscape:window-maximized="0"
     inkscape:showpageshadow="2"
     inkscape:pagecheckerboard="0"
     inkscape:deskcolor="#d1d1d1" />
  <metadata
     id="metadata5">
    <rdf:RDF>
      <cc:Work
         rdf:about="">
        <dc:format>image/svg+xml</dc:format>
        <dc:type
           rdf:resource="http://purl.org/dc/dcmitype/StillImage" />
        <dc:title />
      </cc:Work>
    </rdf:RDF>
  </metadata>
  <g
     inkscape:label="Layer 1"
     inkscape:groupmode="layer"
     id="layer1">
    <g
       style="isolation:isolate"
       id="g37"
       transform="matrix(0.68820613,0,0,0.68820613,42.008208,40.621474)">
      <g
         style="isolation:isolate"
         id="g19">
        <path
           d="m 63.999,117.806 c 0,0 10e-4,0 10e-4,0 v 0 h 0.001 c 3.641,0.001 7.273,-0.365 10.841,-1.094 3.458,-0.708 6.839,-1.759 10.092,-3.135 3.198,-1.355 6.259,-3.017 9.138,-4.963 2.859,-1.933 5.527,-4.134 7.967,-6.575 2.441,-2.44 4.642,-5.108 6.575,-7.967 1.946,-2.879 3.608,-5.94 4.963,-9.138 1.376,-3.253 2.427,-6.634 3.135,-10.092 0.729,-3.568 1.095,-7.2 1.094,-10.841 0,-0.821 0.326,-1.609 0.906,-2.19 0.581,-0.581 1.369,-0.908 2.19,-0.908 0.821,0 1.609,0.326 2.19,0.906 0.581,0.581 0.908,1.368 0.908,2.19 0.001,4.058 -0.406,8.107 -1.22,12.084 -0.79,3.861 -1.964,7.635 -3.5,11.265 -1.511,3.569 -3.364,6.982 -5.534,10.192 -2.155,3.186 -4.608,6.159 -7.328,8.878 -2.719,2.72 -5.692,5.173 -8.878,7.328 -3.21,2.17 -6.623,4.023 -10.192,5.534 -3.63,1.536 -7.404,2.71 -11.265,3.5 -3.977,0.812 -8.025,1.221 -12.083,1.22 -4.058,0.001 -8.106,-0.408 -12.083,-1.22 -3.861,-0.79 -7.635,-1.964 -11.265,-3.5 -3.569,-1.511 -6.982,-3.364 -10.192,-5.534 -3.186,-2.155 -6.159,-4.608 -8.878,-7.328 -2.719,-2.719 -5.173,-5.692 -7.328,-8.878 C 12.084,94.33 10.231,90.917 8.72,87.348 7.184,83.718 6.01,79.944 5.22,76.083 4.408,72.106 3.999,68.058 4,64 3.999,59.942 4.408,55.894 5.22,51.917 c 0.79,-3.861 1.964,-7.635 3.5,-11.265 1.511,-3.569 3.364,-6.982 5.534,-10.192 2.155,-3.186 4.609,-6.159 7.328,-8.878 2.719,-2.719 5.692,-5.173 8.878,-7.328 3.21,-2.17 6.623,-4.023 10.192,-5.534 3.63,-1.536 7.404,-2.71 11.265,-3.5 3.977,-0.814 8.026,-1.221 12.084,-1.22 0.822,0 1.609,0.327 2.19,0.908 0.58,0.581 0.906,1.369 0.906,2.19 0,0.821 -0.327,1.609 -0.908,2.19 -0.581,0.58 -1.369,0.906 -2.19,0.906 -3.641,-0.001 -7.273,0.365 -10.841,1.094 -3.458,0.708 -6.839,1.759 -10.092,3.135 -3.198,1.355 -6.259,3.017 -9.138,4.963 -2.859,1.933 -5.527,4.134 -7.967,6.575 -2.441,2.44 -4.642,5.108 -6.575,7.967 -1.946,2.879 -3.608,5.94 -4.963,9.138 -1.376,3.253 -2.427,6.634 -3.135,10.092 -0.729,3.568 -1.095,7.2 -1.094,10.842 -0.001,3.642 0.365,7.274 1.094,10.842 0.708,3.458 1.759,6.839 3.135,10.092 1.355,3.198 3.017,6.259 4.963,9.138 1.933,2.859 4.134,5.527 6.575,7.967 2.44,2.441 5.108,4.642 7.967,6.575 2.879,1.946 5.94,3.608 9.138,4.963 3.253,1.376 6.634,2.427 10.092,3.135 3.568,0.729 7.2,1.095 10.841,1.094 z M 64.001,124 c 0,0 -0.001,0 -0.001,0"
           fill-rule="evenodd"
           fill="#4a5153"
           id="path15" />
        <path
           d="m 88.315,96.086 v 0 Q 90,97.202 90,98.876 v 0 0 q 0,0.557 -0.449,1.45 v 0 0 q -0.449,0.781 -1.236,1.228 v 0 0 Q 87.529,102 86.631,102 v 0 0 q -1.123,0 -1.91,-0.446 v 0 0 q -3.144,-1.786 -5.054,-5.803 v 0 0 Q 77.758,91.734 77.758,82.918 v 0 0 q 0,-7.811 -4.38,-10.991 v 0 0 q -4.38,-3.18 -10.445,-3.18 v 0 H 38 v -38.163 0 V 24 h 26.618 v 0 q 6.401,0 11.455,2.734 v 0 0 q 5.054,2.734 7.918,7.532 v 0 0 q 2.864,4.798 2.864,10.824 v 0 0 q 0,7.142 -3.762,12.554 v 0 0 q -3.763,5.412 -9.827,7.42 v 0 0 q 4.941,1.897 8.086,6.417 v 0 0 Q 84.497,76 84.609,82.472 v 0 0 q 0.112,6.919 0.955,9.708 v 0 0 q 0.842,2.79 2.751,3.906 z M 38,62.609 h 26.955 v 0 q 3.931,-0.334 7.3,-2.566 v 0 0 q 3.369,-2.232 5.391,-6.026 v 0 0 q 2.021,-3.794 2.021,-8.704 v 0 0 q 0,-6.36 -4.324,-10.545 v 0 0 Q 71.019,30.584 64.056,30.584 v 0 H 38 Z"
           fill-rule="evenodd"
           fill="#4a5153"
           id="path17" />
      </g>
    </g>
    <text
       xml:space="preserve"
       style="font-style:normal;font-weight:normal;font-size:19.7556px;line-height:1.25;font-family:sans-serif;fill:#4a5153;fill-opacity:1;stroke:none;stroke-width:0.299966"
       x="152.81206"
       y="70.816772"
       id="text41"><tspan
         sodipodi:role="line"
         id="tspan39"
         x="152.81206"
         y="70.816772"
         style="font-style:normal;font-variant:normal;font-weight:300;font-stretch:normal;font-size:19.7556px;font-family:'Helvetica Neue';-inkscape-font-specification:'Helvetica Neue Light';fill:#4a5153;fill-opacity:1;stroke-width:0.299966">Romain Clement</tspan></text>
    <text
       xml:space="preserve"
       style="font-style:normal;font-weight:normal;font-size:8.46667px;line-height:1.25;font-family:sans-serif;fill:#4a5153;fill-opacity:1;stroke:none;stroke-width:0.299966"
       x="153.50319"
       y="82.849892"
       id="text45"><tspan
         sodipodi:role="line"
         id="tspan43"
         x="153.50319"
         y="82.849892"
         style="font-style:normal;font-variant:normal;font-weight:300;font-stretch:normal;font-size:8.46667px;font-family:'Helvetica Neue';-inkscape-font-specification:'Helvetica Neue Light';fill:#4a5153;fill-opacity:1;stroke-width:0.299966">Freelance Data / Machine Learning</tspan><tspan
         sodipodi:role="line"
         x="153.50319"
         y="93.705528"
         style="font-style:normal;font-variant:normal;font-weight:300;font-stretch:normal;font-size:8.46667px;font-family:'Helvetica Neue';-inkscape-font-specification:'Helvetica Neue Light';fill:#4a5153;fill-opacity:1;stroke-width:0.299966"
         id="tspan279">Engineer &amp; Trainer</tspan></text>
    <text
       xml:space="preserve"
       style="font-style:normal;font-weight:normal;font-size:9.87778px;line-height:1.25;font-family:sans-serif;fill:#4a5153;fill-opacity:1;stroke:none;stroke-width:0.299966"
       x="153.46239"
       y="111.03174"
       id="text49"><tspan
         sodipodi:role="line"
         id="tspan47"
         x="153.46239"
         y="111.03174"
         style="font-style:normal;font-variant:normal;font-weight:500;font-stretch:normal;font-size:9.87778px;font-family:'Helvetica Neue';-inkscape-font-specification:'Helvetica Neue Medium';fill:#4a5153;fill-opacity:1;stroke-width:0.299966"
         dx="0 0 0 0 0 0 0 0 0 0 0 0 0 0">https://romain-clement.net</tspan></text>
  </g>
</svg>
